<?xml version="1.0" encoding="UTF-8"?>
<svg version="1.1" xmlns="http://www.w3.org/2000/svg" width="512" height="512">
<path d="M0 0 C8.23466022 6.47009017 14.62965662 14.58694724 16.625 25.0625 C17.45908541 35.79622206 16.44116138 44.87710498 10.03979492 53.72485352 C9.58803391 54.35110123 9.13627289 54.97734894 8.67082214 55.62257385 C8.32570084 56.09774948 7.98057953 56.57292511 7.625 57.0625 C18.49481987 54.68183463 29.23080175 51.85617587 39.9609375 48.91796875 C41.35035978 48.53825024 42.73978444 48.15854043 44.12921143 47.77883911 C49.8931652 46.20216755 55.65609439 44.62186341 61.41601562 43.03051758 C64.98035232 42.04613423 68.5468399 41.06991798 72.11485672 40.09896278 C73.46412621 39.73006385 74.81254839 39.35805091 76.16007614 38.98283958 C78.02826101 38.46288998 79.8995652 37.95418732 81.77099609 37.44604492 C82.83224701 37.15388596 83.89349792 36.86172699 84.98690796 36.56071472 C87.625 36.0625 87.625 36.0625 90.625 37.0625 C91.64601135 39.64306641 91.64601135 39.64306641 92.57250977 43.1640625 C92.7463491 43.81037754 92.92018843 44.45669258 93.09929562 45.12259293 C93.6837861 47.30786702 94.24987787 49.49750618 94.81640625 51.6875 C95.23246181 53.25711823 95.64968753 54.82642669 96.06799316 56.39544678 C96.97458728 59.80563707 97.87312244 63.2178167 98.76565552 66.63171387 C100.20479368 72.13576349 101.6614046 77.63509433 103.12084961 83.13378906 C104.94151447 89.99771156 106.75813316 96.86268057 108.56993961 103.72894669 C113.40417385 122.04571838 118.31326991 140.34229689 123.22549534 158.63827705 C125.14051566 165.77148242 127.05153251 172.9057517 128.96069336 180.04052734 C133.99844377 198.86239292 139.05399617 217.67899291 144.17249107 236.4790802 C145.66300955 241.95643327 147.14941833 247.43490372 148.63615513 252.9132843 C150.02253595 258.01903169 151.41678893 263.12254374 152.8171339 268.22447777 C153.66844611 271.33294744 154.51257031 274.44333539 155.35473442 277.55429459 C155.74231915 278.97991113 156.13297272 280.40469762 156.52699471 281.82854843 C157.06274552 283.7657937 157.5865897 285.70631995 158.10986328 287.64697266 C158.4045047 288.72451813 158.69914612 289.8020636 159.00271606 290.91226196 C160.40986793 298.03580009 159.42105509 302.37255608 155.5625 308.375 C154.63614326 309.8816597 153.71179431 311.38955504 152.7890625 312.8984375 C152.28149414 313.72053711 151.77392578 314.54263672 151.25097656 315.38964844 C148.22003202 320.37204797 145.33963684 325.44188246 142.4375 330.5 C141.14224337 332.74888011 139.84666624 334.99757566 138.55078125 337.24609375 C137.90061035 338.37515137 137.25043945 339.50420898 136.58056641 340.66748047 C133.43167947 346.13419978 130.27817956 351.59825592 127.125 357.0625 C123.32758592 363.64422043 119.53051907 370.22614073 115.734375 376.80859375 C115.08791016 377.92943359 114.44144531 379.05027344 113.77539062 380.20507812 C112.57083786 382.29354731 111.36639704 384.38208107 110.16210938 386.47070312 C108.99102301 388.50103228 107.79140395 390.5150933 106.56811523 392.5144043 C105.01181748 395.17222207 103.93894645 397.83735492 102.88696289 400.72973633 C100.15787816 407.49734806 97.1863544 413.1485572 90.56671143 416.70608521 C81.66546922 420.2244707 72.34261555 422.25327212 63.01847076 424.31942368 C58.82251013 425.26861103 54.64953797 426.30977577 50.47412109 427.3449707 C44.3135667 428.86594446 38.14834373 430.36380834 31.9750824 431.83236599 C20.83289233 434.48717046 9.75574732 437.34549388 -1.30078125 440.3359375 C-2.11912634 440.55724712 -2.93747143 440.77855675 -3.78061485 441.00657272 C-7.93552445 442.13153769 -12.08938832 443.26030915 -16.24282837 444.39068604 C-21.26121003 445.75511499 -26.28370482 447.1039136 -31.30737305 448.44873047 C-32.14823613 448.6738714 -32.98909922 448.89901234 -33.855443 449.13097572 C-35.57027923 449.59010835 -37.28511823 450.04923062 -38.99995995 450.50834274 C-53.51539789 454.39650197 -68.02121467 458.31953311 -82.52218628 462.26127625 C-90.09566536 464.31981364 -97.67084011 466.37207989 -105.24637032 468.4230547 C-111.53262423 470.12563738 -117.81646724 471.8367824 -124.09869766 473.55414772 C-127.98938855 474.61559104 -131.8822158 475.66901978 -135.77568054 476.72023773 C-137.59281063 477.2126561 -139.40902526 477.70846656 -141.22425842 478.20783234 C-143.70887697 478.89087853 -146.19642268 479.56198965 -148.68505859 480.23022461 C-149.41167128 480.43307918 -150.13828396 480.63593374 -150.88691521 480.84493542 C-154.34388639 481.75981599 -156.9792202 482.43593322 -160.375 481.0625 C-162.98711786 471.46711391 -165.59517606 461.87063467 -168.19802856 452.27273083 C-169.40670882 447.81628285 -170.61679469 443.36022645 -171.83007812 438.9050293 C-173.00047459 434.60711102 -174.16719797 430.30821127 -175.33135986 426.00860023 C-175.77659896 424.36676709 -176.22317003 422.72529456 -176.67108154 421.08418846 C-177.29725087 418.78907536 -177.9187116 416.49273641 -178.5390625 414.19604492 C-178.72607727 413.5148761 -178.91309204 412.83370728 -179.10577393 412.13189697 C-179.85539263 409.33993742 -180.375 406.9698394 -180.375 404.0625 C-181.19891802 403.95057878 -182.02283604 403.83865757 -182.87172127 403.7233448 C-192.10920375 402.43969377 -201.28792958 400.90343695 -210.46826172 399.26513672 C-212.02692162 398.98878245 -213.58561821 398.71263502 -215.14434814 398.43667603 C-219.3297085 397.69510325 -223.51455689 396.9506786 -227.69931173 396.20569754 C-232.08986024 395.42459589 -236.48088455 394.64617814 -240.87185669 393.86746216 C-249.16614381 392.39610012 -257.46000709 390.92236331 -265.75371659 389.44774926 C-275.20455922 387.76751909 -284.65587761 386.08997277 -294.10723472 384.41263938 C-313.53034987 380.96555562 -332.95286056 377.51507668 -352.375 374.0625 C-351.85168536 365.56485789 -350.89452068 357.28756838 -349.38587952 348.91119385 C-349.18381958 347.76015694 -348.98175964 346.60912004 -348.77357668 345.42320323 C-348.21818832 342.2667405 -347.65725082 339.11132586 -347.09383237 335.95628858 C-346.48442447 332.53561956 -345.88237433 329.11365453 -345.27938843 325.69184875 C-344.23366307 319.76337158 -343.1833707 313.83571845 -342.1299305 307.90860748 C-340.59586539 299.27718889 -339.06896202 290.64451494 -337.54370146 282.01153669 C-335.05379746 267.91974687 -332.55834687 253.82894525 -330.05932617 239.73876953 C-327.65820583 226.20050658 -325.2593885 212.66183936 -322.86401367 199.12255859 C-322.71759365 198.29496026 -322.57117363 197.46736192 -322.42031664 196.61468485 C-321.53776302 191.62616878 -320.65530575 186.63763567 -319.77287836 181.64909726 C-318.4663465 174.26309165 -317.15966439 166.87711261 -315.85289001 159.4911499 C-315.71121534 158.69038252 -315.56954067 157.88961514 -315.42357283 157.06458208 C-313.50140203 146.20049547 -311.57757679 135.33670318 -309.65216293 124.47319087 C-308.87309615 120.07738671 -308.0942349 115.68154612 -307.31535721 111.28570844 C-306.6872397 107.74087306 -306.05896699 104.19606533 -305.43035233 100.65131807 C-302.86788576 86.20096642 -300.31493948 71.7490874 -297.79687861 57.29092363 C-297.43943174 55.2389615 -297.08161518 53.18706419 -296.72367066 51.13518882 C-295.61269328 44.76573974 -294.50457639 38.39581761 -293.40227604 32.02486038 C-293.01327101 29.79135023 -292.62413629 27.55786266 -292.23484802 25.32440186 C-292.05972982 24.30513092 -291.88461161 23.28585998 -291.7041868 22.23570204 C-291.46179913 20.85067322 -291.46179913 20.85067322 -291.21451473 19.43766403 C-291.07557543 18.635598 -290.93663612 17.83353197 -290.79348654 17.0071609 C-290.375 15.0625 -290.375 15.0625 -289.375 13.0625 C-279.11352528 13.67161508 -269.08444836 15.57350183 -258.98217773 17.37304688 C-257.0331537 17.71677834 -255.08406015 18.06011587 -253.13490295 18.40309143 C-247.87037337 19.33067131 -242.60687053 20.26395804 -237.34356952 21.19848061 C-231.83039782 22.17654192 -226.31639296 23.14988497 -220.80250549 24.12390137 C-211.55453845 25.75828874 -202.30722387 27.39632727 -193.06030273 29.03662109 C-182.36081514 30.93454316 -171.66036727 32.82697286 -160.95938152 34.71642828 C-150.66188909 36.53474154 -140.36502652 38.35659674 -130.06846809 40.18019104 C-125.68551924 40.95639701 -121.30236142 41.7314073 -116.91903496 42.50547791 C-111.76799972 43.41530949 -106.61752479 44.32824825 -101.46747398 45.24363518 C-99.57374353 45.57972076 -97.67982206 45.91473192 -95.78570175 46.24861336 C-93.20938921 46.70293066 -90.63378611 47.16107136 -88.05833435 47.62023926 C-87.30125559 47.75282749 -86.54417683 47.88541572 -85.76415628 48.02202177 C-80.60332882 48.94833559 -80.60332882 48.94833559 -78.375 50.0625 C-78.33375 48.969375 -78.2925 47.87625 -78.25 46.75 C-77.17020411 38.06535595 -71.29881888 29.08718674 -64.578125 23.59375 C-59.83055556 20.0625 -59.83055556 20.0625 -57.375 20.0625 C-57.00375 18.763125 -57.00375 18.763125 -56.625 17.4375 C-53.58027549 9.21674382 -47.05728826 1.93934971 -39.19921875 -2.0390625 C-25.80947375 -8.1312869 -12.79929427 -7.34774301 0 0 Z " fill="#D2B9FE" transform="translate(352.375,17.9375)"/>
<path d="M0 0 C8.23466022 6.47009017 14.62965662 14.58694724 16.625 25.0625 C17.45908541 35.79622206 16.44116138 44.87710498 10.03979492 53.72485352 C9.58803391 54.35110123 9.13627289 54.97734894 8.67082214 55.62257385 C8.32570084 56.09774948 7.98057953 56.57292511 7.625 57.0625 C18.49481987 54.68183463 29.23080175 51.85617587 39.9609375 48.91796875 C41.35035978 48.53825024 42.73978444 48.15854043 44.12921143 47.77883911 C49.8931652 46.20216755 55.65609439 44.62186341 61.41601562 43.03051758 C64.98035232 42.04613423 68.5468399 41.06991798 72.11485672 40.09896278 C73.46412621 39.73006385 74.81254839 39.35805091 76.16007614 38.98283958 C78.02826101 38.46288998 79.8995652 37.95418732 81.77099609 37.44604492 C82.83224701 37.15388596 83.89349792 36.86172699 84.98690796 36.56071472 C87.625 36.0625 87.625 36.0625 90.625 37.0625 C91.64601135 39.64306641 91.64601135 39.64306641 92.57250977 43.1640625 C92.7463491 43.81037754 92.92018843 44.45669258 93.09929562 45.12259293 C93.6837861 47.30786702 94.24987787 49.49750618 94.81640625 51.6875 C95.23246181 53.25711823 95.64968753 54.82642669 96.06799316 56.39544678 C96.97458728 59.80563707 97.87312244 63.2178167 98.76565552 66.63171387 C100.20479368 72.13576349 101.6614046 77.63509433 103.12084961 83.13378906 C104.94151447 89.99771156 106.75813316 96.86268057 108.56993961 103.72894669 C113.40417385 122.04571838 118.31326991 140.34229689 123.22549534 158.63827705 C125.14051566 165.77148242 127.05153251 172.9057517 128.96069336 180.04052734 C133.99844377 198.86239292 139.05399617 217.67899291 144.17249107 236.4790802 C145.66300955 241.95643327 147.14941833 247.43490372 148.63615513 252.9132843 C150.02253595 258.01903169 151.41678893 263.12254374 152.8171339 268.22447777 C153.66844611 271.33294744 154.51257031 274.44333539 155.35473442 277.55429459 C155.74231915 278.97991113 156.13297272 280.40469762 156.52699471 281.82854843 C157.06274552 283.7657937 157.5865897 285.70631995 158.10986328 287.64697266 C158.4045047 288.72451813 158.69914612 289.8020636 159.00271606 290.91226196 C160.40986793 298.03580009 159.42105509 302.37255608 155.5625 308.375 C154.63614326 309.8816597 153.71179431 311.38955504 152.7890625 312.8984375 C152.28149414 313.72053711 151.77392578 314.54263672 151.25097656 315.38964844 C148.22003202 320.37204797 145.33963684 325.44188246 142.4375 330.5 C141.14224337 332.74888011 139.84666624 334.99757566 138.55078125 337.24609375 C137.90061035 338.37515137 137.25043945 339.50420898 136.58056641 340.66748047 C133.43167947 346.13419978 130.27817956 351.59825592 127.125 357.0625 C123.32758592 363.64422043 119.53051907 370.22614073 115.734375 376.80859375 C115.08791016 377.92943359 114.44144531 379.05027344 113.77539062 380.20507812 C112.57083786 382.29354731 111.36639704 384.38208107 110.16210938 386.47070312 C108.99102301 388.50103228 107.79140395 390.5150933 106.56811523 392.5144043 C105.01181748 395.17222207 103.93894645 397.83735492 102.88696289 400.72973633 C100.15787816 407.49734806 97.1863544 413.1485572 90.56671143 416.70608521 C81.66546922 420.2244707 72.34261555 422.25327212 63.01847076 424.31942368 C58.82251013 425.26861103 54.64953797 426.30977577 50.47412109 427.3449707 C44.3135667 428.86594446 38.14834373 430.36380834 31.9750824 431.83236599 C20.83289233 434.48717046 9.75574732 437.34549388 -1.30078125 440.3359375 C-2.11912634 440.55724712 -2.93747143 440.77855675 -3.78061485 441.00657272 C-7.93552445 442.13153769 -12.08938832 443.26030915 -16.24282837 444.39068604 C-21.26121003 445.75511499 -26.28370482 447.1039136 -31.30737305 448.44873047 C-32.14823613 448.6738714 -32.98909922 448.89901234 -33.855443 449.13097572 C-35.57027923 449.59010835 -37.28511823 450.04923062 -38.99995995 450.50834274 C-53.51539789 454.39650197 -68.02121467 458.31953311 -82.52218628 462.26127625 C-90.09566536 464.31981364 -97.67084011 466.37207989 -105.24637032 468.4230547 C-111.53262423 470.12563738 -117.81646724 471.8367824 -124.09869766 473.55414772 C-127.98938855 474.61559104 -131.8822158 475.66901978 -135.77568054 476.72023773 C-137.59281063 477.2126561 -139.40902526 477.70846656 -141.22425842 478.20783234 C-143.70887697 478.89087853 -146.19642268 479.56198965 -148.68505859 480.23022461 C-149.41167128 480.43307918 -150.13828396 480.63593374 -150.88691521 480.84493542 C-154.34388639 481.75981599 -156.9792202 482.43593322 -160.375 481.0625 C-162.98711786 471.46711391 -165.59517606 461.87063467 -168.19802856 452.27273083 C-169.40670882 447.81628285 -170.61679469 443.36022645 -171.83007812 438.9050293 C-173.00047459 434.60711102 -174.16719797 430.30821127 -175.33135986 426.00860023 C-175.77659896 424.36676709 -176.22317003 422.72529456 -176.67108154 421.08418846 C-177.29725087 418.78907536 -177.9187116 416.49273641 -178.5390625 414.19604492 C-178.72607727 413.5148761 -178.91309204 412.83370728 -179.10577393 412.13189697 C-179.85539263 409.33993742 -180.375 406.9698394 -180.375 404.0625 C-181.19891802 403.95057878 -182.02283604 403.83865757 -182.87172127 403.7233448 C-192.10920375 402.43969377 -201.28792958 400.90343695 -210.46826172 399.26513672 C-212.02692162 398.98878245 -213.58561821 398.71263502 -215.14434814 398.43667603 C-219.3297085 397.69510325 -223.51455689 396.9506786 -227.69931173 396.20569754 C-232.08986024 395.42459589 -236.48088455 394.64617814 -240.87185669 393.86746216 C-249.16614381 392.39610012 -257.46000709 390.92236331 -265.75371659 389.44774926 C-275.20455922 387.76751909 -284.65587761 386.08997277 -294.10723472 384.41263938 C-313.53034987 380.96555562 -332.95286056 377.51507668 -352.375 374.0625 C-351.85168536 365.56485789 -350.89452068 357.28756838 -349.38587952 348.91119385 C-349.18381958 347.76015694 -348.98175964 346.60912004 -348.77357668 345.42320323 C-348.21818832 342.2667405 -347.65725082 339.11132586 -347.09383237 335.95628858 C-346.48442447 332.53561956 -345.88237433 329.11365453 -345.27938843 325.69184875 C-344.23366307 319.76337158 -343.1833707 313.83571845 -342.1299305 307.90860748 C-340.59586539 299.27718889 -339.06896202 290.64451494 -337.54370146 282.01153669 C-335.05379746 267.91974687 -332.55834687 253.82894525 -330.05932617 239.73876953 C-327.65820583 226.20050658 -325.2593885 212.66183936 -322.86401367 199.12255859 C-322.71759365 198.29496026 -322.57117363 197.46736192 -322.42031664 196.61468485 C-321.53776302 191.62616878 -320.65530575 186.63763567 -319.77287836 181.64909726 C-318.4663465 174.26309165 -317.15966439 166.87711261 -315.85289001 159.4911499 C-315.71121534 158.69038252 -315.56954067 157.88961514 -315.42357283 157.06458208 C-313.50140203 146.20049547 -311.57757679 135.33670318 -309.65216293 124.47319087 C-308.87309615 120.07738671 -308.0942349 115.68154612 -307.31535721 111.28570844 C-306.6872397 107.74087306 -306.05896699 104.19606533 -305.43035233 100.65131807 C-302.86788576 86.20096642 -300.31493948 71.7490874 -297.79687861 57.29092363 C-297.43943174 55.2389615 -297.08161518 53.18706419 -296.72367066 51.13518882 C-295.61269328 44.76573974 -294.50457639 38.39581761 -293.40227604 32.02486038 C-293.01327101 29.79135023 -292.62413629 27.55786266 -292.23484802 25.32440186 C-292.05972982 24.30513092 -291.88461161 23.28585998 -291.7041868 22.23570204 C-291.46179913 20.85067322 -291.46179913 20.85067322 -291.21451473 19.43766403 C-291.07557543 18.635598 -290.93663612 17.83353197 -290.79348654 17.0071609 C-290.375 15.0625 -290.375 15.0625 -289.375 13.0625 C-279.11352528 13.67161508 -269.08444836 15.57350183 -258.98217773 17.37304688 C-257.0331537 17.71677834 -255.08406015 18.06011587 -253.13490295 18.40309143 C-247.87037337 19.33067131 -242.60687053 20.26395804 -237.34356952 21.19848061 C-231.83039782 22.17654192 -226.31639296 23.14988497 -220.80250549 24.12390137 C-211.55453845 25.75828874 -202.30722387 27.39632727 -193.06030273 29.03662109 C-182.36081514 30.93454316 -171.66036727 32.82697286 -160.95938152 34.71642828 C-150.66188909 36.53474154 -140.36502652 38.35659674 -130.06846809 40.18019104 C-125.68551924 40.95639701 -121.30236142 41.7314073 -116.91903496 42.50547791 C-111.76799972 43.41530949 -106.61752479 44.32824825 -101.46747398 45.24363518 C-99.57374353 45.57972076 -97.67982206 45.91473192 -95.78570175 46.24861336 C-93.20938921 46.70293066 -90.63378611 47.16107136 -88.05833435 47.62023926 C-87.30125559 47.75282749 -86.54417683 47.88541572 -85.76415628 48.02202177 C-80.60332882 48.94833559 -80.60332882 48.94833559 -78.375 50.0625 C-78.33375 48.969375 -78.2925 47.87625 -78.25 46.75 C-77.17020411 38.06535595 -71.29881888 29.08718674 -64.578125 23.59375 C-59.83055556 20.0625 -59.83055556 20.0625 -57.375 20.0625 C-57.00375 18.763125 -57.00375 18.763125 -56.625 17.4375 C-53.58027549 9.21674382 -47.05728826 1.93934971 -39.19921875 -2.0390625 C-25.80947375 -8.1312869 -12.79929427 -7.34774301 0 0 Z M68.36328125 57.34765625 C67.33984619 57.62754395 66.31641113 57.90743164 65.26196289 58.19580078 C64.16489014 58.50243652 63.06781738 58.80907227 61.9375 59.125 C59.58858357 59.76968396 57.239624 60.41421074 54.890625 61.05859375 C53.68728516 61.39101074 52.48394531 61.72342773 51.24414062 62.06591797 C46.65711679 63.32902046 42.06437291 64.56998696 37.46923828 65.80322266 C35.28616442 66.39146053 33.10482225 66.98616414 30.92529297 67.58740234 C25.99850746 68.93886526 21.10001119 70.20653128 16.0859375 71.19140625 C5.2508795 73.38954251 5.2508795 73.38954251 -2.5625 81 C-3.21605469 82.05058594 -3.86960937 83.10117188 -4.54296875 84.18359375 C-9.10226089 91.34819568 -17.2129594 95.19944029 -25.16601562 97.60400391 C-27.76171212 98.14276584 -30.14577229 98.1748846 -32.796875 98.16015625 C-34.18277832 98.15640991 -34.18277832 98.15640991 -35.59667969 98.15258789 C-36.76102539 98.14348389 -37.92537109 98.13437988 -39.125 98.125 C-42.8375 98.104375 -46.55 98.08375 -50.375 98.0625 C-53.675 104.9925 -56.975 111.9225 -60.375 119.0625 C-64.89926773 117.55441076 -69.04034667 115.96974747 -73.375 114.0625 C-68.51744441 102.19700848 -68.51744441 102.19700848 -66.5625 98.4375 C-65.2259288 96.20691272 -65.2259288 96.20691272 -65.375 94.0625 C-79.99761445 97.24986741 -94.55009436 100.81314667 -108.87011719 105.16943359 C-114.90686234 106.98103179 -121.00455375 108.49891363 -127.125 110 C-134.8399971 111.89225449 -142.4988203 113.90123404 -150.125 116.125 C-158.62462859 118.60292045 -167.16928666 120.80714523 -175.765625 122.921875 C-181.55079154 124.34569767 -187.30427689 125.88054736 -193.05517578 127.43652344 C-195.89899297 128.20389318 -198.74443366 128.96512072 -201.58984375 129.7265625 C-212.87737162 132.75082022 -224.15941172 135.77939143 -235.375 139.0625 C-235.15585938 139.9390625 -234.93671875 140.815625 -234.7109375 141.71875 C-234.39382812 142.9871875 -234.07671875 144.255625 -233.75 145.5625 C-233.5732373 146.26737549 -233.39647461 146.97225098 -233.21435547 147.69848633 C-232.12659333 152.03981445 -231.04964212 156.38356262 -229.984375 160.73046875 C-227.39354574 171.25970949 -224.66663414 181.71943814 -221.62548828 192.12768555 C-219.41956338 199.74365204 -217.51309958 207.42118764 -215.625 215.12109375 C-214.01270311 221.64585774 -212.26019163 228.11160991 -210.375 234.5625 C-207.90002756 243.03154633 -205.72613913 251.55238573 -203.625 260.12109375 C-202.01270311 266.64585774 -200.26019163 273.11160991 -198.375 279.5625 C-195.90002756 288.03154633 -193.72613913 296.55238573 -191.625 305.12109375 C-190.01270311 311.64585774 -188.26019163 318.11160991 -186.375 324.5625 C-183.90002756 333.03154633 -181.72613913 341.55238573 -179.625 350.12109375 C-177.79927069 357.50959206 -175.76277048 364.8160803 -173.62719727 372.12011719 C-171.39166112 379.83691079 -169.46396599 387.61811849 -167.55029297 395.41992188 C-166.16761269 401.01549835 -164.69129926 406.55286808 -163 412.0625 C-160.00907037 421.82322866 -157.65446313 431.75709902 -155.22900391 441.66992188 C-153.46315143 448.86420382 -151.59120279 455.99285765 -149.375 463.0625 C-143.33391068 462.50247961 -137.71502564 461.55143321 -131.87133789 459.94873047 C-131.07298019 459.73549637 -130.2746225 459.52226227 -129.45207214 459.30256653 C-126.83221543 458.60116911 -124.21497318 457.89049799 -121.59765625 457.1796875 C-119.74481858 456.68164692 -117.89182365 456.18419106 -116.03868103 455.68728638 C-111.15960105 454.37732265 -106.28268423 453.05947734 -101.40618896 451.7399292 C-96.53573504 450.42345769 -91.66330167 449.11435867 -86.79101562 447.8046875 C-78.45001433 445.56158411 -70.11065654 443.31245262 -61.7722311 441.05979443 C-56.56454836 439.65310194 -51.35615632 438.24909296 -46.14672852 436.84887695 C-44.94934555 436.52698395 -43.75196259 436.20509094 -42.51829529 435.8734436 C-40.40668813 435.30599796 -38.29501187 434.73880932 -36.1832428 434.17196655 C-30.50890548 432.64633944 -24.84452871 431.08857024 -19.1875 429.5 C-12.41669691 427.60350024 -5.62091469 425.8190621 1.1875 424.0625 C7.85072515 422.34325704 14.4766819 420.55795863 21.0625 418.5625 C28.88296043 416.19526677 36.79213139 414.24798521 44.72631836 412.30175781 C51.57318011 410.60987765 58.35166353 408.76813132 65.09765625 406.7109375 C69.57876392 405.3450884 74.07476232 404.16985873 78.625 403.0625 C78.03565087 397.10804156 76.79472563 391.71640114 75.0625 386 C72.35561165 376.82121053 69.92270718 367.58476238 67.5625 358.3125 C65.09847649 348.64946078 62.54261164 339.03472734 59.65625 329.48828125 C58.21645341 324.70532061 56.90738861 319.88970265 55.625 315.0625 C56.38683594 314.95292969 57.14867187 314.84335937 57.93359375 314.73046875 C62.90947702 313.83007082 67.78457033 312.60707023 72.6875 311.375 C73.74735107 311.10953369 74.80720215 310.84406738 75.89916992 310.57055664 C83.65324442 308.60788788 91.34748088 306.4777939 99.02832031 304.24780273 C104.81306512 302.5704029 110.6120087 300.96746889 116.4375 299.4375 C117.20860107 299.23390869 117.97970215 299.03031738 118.77416992 298.82055664 C122.61554531 297.81546267 126.46217751 296.85826042 130.33203125 295.96875 C131.07670654 295.79424316 131.82138184 295.61973633 132.58862305 295.43994141 C133.99501494 295.11300652 135.40400127 294.79697591 136.81567383 294.49365234 C138.89262465 294.04064121 138.89262465 294.04064121 141.625 293.0625 C142.92981574 289.14805278 141.77966003 286.64574073 140.5625 282.875 C138.33003758 275.65902374 136.4154764 268.40009031 134.625 261.0625 C132.74840802 253.40832654 130.73897842 245.83313276 128.44921875 238.29296875 C126.58117145 232.07811909 125.03732986 225.79701755 123.49755859 219.49414062 C122.19720925 214.21976961 120.7658405 209.00996521 119.1875 203.8125 C116.79426896 195.92089637 114.82229874 187.94315001 112.85791016 179.93554688 C111.22506854 173.32867329 109.42641824 166.80387407 107.44921875 160.29296875 C105.58117145 154.07811909 104.03732986 147.79701755 102.49755859 141.49414062 C101.19720925 136.21976961 99.7658405 131.00996521 98.1875 125.8125 C96.10578772 118.94811965 94.33399988 112.02849663 92.625 105.0625 C90.7440568 97.40044017 88.74875555 89.80728807 86.45800781 82.2578125 C84.53822484 75.89794799 82.866984 69.47926375 81.23608398 63.03979492 C80.53845499 59.24484942 80.53845499 59.24484942 78.625 56.0625 C74.95394263 55.8277674 71.89277716 56.36968714 68.36328125 57.34765625 Z " fill="#5D4AAC" transform="translate(352.375,17.9375)"/>
<path d="M0 0 C11.36649063 1.17751467 22.54622079 2.88303469 33.7741394 4.99865723 C38.52402569 5.89276115 43.27757427 6.76692699 48.03125 7.640625 C49.05069199 7.82816345 50.07013397 8.0157019 51.12046814 8.20892334 C66.97616244 11.11098896 82.87164628 13.79052515 98.76147461 16.49804688 C110.15210898 18.44358187 121.52387925 20.44559822 132.86924744 22.64056396 C140.22644351 24.05951273 147.6027154 25.30593811 155 26.5 C164.81507778 28.10648976 174.60109331 29.80094615 184.35546875 31.74414062 C189.22622307 32.70601228 194.06623767 33.43806807 199 34 C199.81381795 35.93694678 200.62600916 37.87457711 201.4375 39.8125 C201.88996094 40.89144531 202.34242188 41.97039062 202.80859375 43.08203125 C203.60375013 45.0295126 204.33479648 47.00438943 205 49 C194.23074362 52.12102653 183.44707242 55.17773095 172.6171875 58.08203125 C171.52180664 58.37637054 170.42642578 58.67070984 169.29785156 58.97396851 C151.19734727 63.83228129 133.08433719 68.64412258 114.97314453 73.46240234 C110.85155394 74.55894943 106.73022121 75.6564613 102.60903931 76.7545433 C101.0721676 77.16384939 99.5352051 77.57281476 97.99813843 77.98138809 C89.06384755 80.35635788 80.1452466 82.78092548 71.24032497 85.26385212 C65.84714933 86.7672947 60.44762475 88.24314268 55.03515625 89.67578125 C54.22429062 89.89066696 53.41342499 90.10555267 52.57798767 90.32695007 C50.90934113 90.76850183 49.24052525 91.20941421 47.5715332 91.6496582 C45.01094867 92.32611894 42.45178996 93.00781992 39.89257812 93.68945312 C38.25268873 94.12271604 36.61271796 94.55567108 34.97265625 94.98828125 C34.21340347 95.19133377 33.4541507 95.39438629 32.67189026 95.60359192 C29.69641623 96.38326615 27.09033008 97 24 97 C26.48165095 107.22308421 29.05954297 117.39822977 32 127.5 C34.21785164 135.12148571 36.22334561 142.76983523 38.10546875 150.48046875 C39.81575096 157.41963923 41.76987302 164.27459407 43.76733398 171.13574219 C45.74303778 177.97232467 47.48798515 184.84927995 49.17578125 191.76171875 C50.48009627 197.05422776 51.9232323 202.28255545 53.5 207.5 C55.32678008 213.54472288 56.93967351 219.61558958 58.4375 225.75 C60.13856838 232.71576734 61.99561115 239.61541552 64 246.5 C66.24668985 254.21682905 68.27154297 261.96327234 70.17797852 269.77050781 C71.46123353 274.97735478 72.88048663 280.11883496 74.4375 285.25 C76.83074729 293.14232203 78.80383143 301.12053069 80.76708984 309.12915039 C82.39068967 315.70227916 84.18963464 322.18715052 86.16479492 328.66186523 C88.86605099 337.66349102 90.90312734 346.84253233 93 356 C73.73596736 354.14084285 73.73596736 354.14084285 66.62109375 352.5625 C63.07637419 351.80178522 59.50849168 351.18480897 55.9375 350.5625 C55.20901855 350.43496338 54.48053711 350.30742676 53.72998047 350.17602539 C52.23264673 349.9140329 50.73525015 349.65239932 49.23779297 349.39111328 C45.65770593 348.76539875 42.0789192 348.13235298 38.5 347.5 C37.44135742 347.3134082 37.44135742 347.3134082 36.36132812 347.12304688 C32.90560908 346.51395667 29.4503482 345.90250155 25.99609375 345.28515625 C16.52566501 343.5969145 7.04274653 341.99523161 -2.45141602 340.44555664 C-7.88401282 339.55110199 -13.28497065 338.5674983 -18.67944336 337.46655273 C-22.13039499 336.77273174 -25.59453831 336.16440913 -29.0625 335.5625 C-29.77349854 335.43762207 -30.48449707 335.31274414 -31.21704102 335.18408203 C-35.0781889 334.5063611 -38.94085917 333.83803986 -42.8046875 333.17578125 C-43.58062256 333.04163818 -44.35655762 332.90749512 -45.15600586 332.76928711 C-46.65114835 332.51089705 -48.14674263 332.25510478 -49.64282227 332.00219727 C-54.77483376 331.11258312 -54.77483376 331.11258312 -57 330 C-56.5252549 317.49481716 -54.12047059 305.29363564 -51.9375 293 C-51.52954848 290.67716773 -51.12208521 288.35424965 -50.71508789 286.03125 C-49.68081505 280.13776282 -48.6389045 274.24565668 -47.59423828 268.35400391 C-47.03517302 265.19852381 -46.47802694 262.04271347 -45.921875 258.88671875 C-43.0168429 242.40218383 -40.09065657 225.92158714 -37.07421875 209.45703125 C-36.91438507 208.58429565 -36.75455139 207.71156006 -36.58987427 206.81237793 C-36.42937592 205.93601685 -36.26887756 205.05965576 -36.10351562 204.15673828 C-35.77731876 202.3753301 -35.45114696 200.59391732 -35.125 198.8125 C-34.88269653 197.48964996 -34.88269653 197.48964996 -34.63549805 196.14007568 C-31.39157095 178.40251047 -28.33725686 160.63363321 -25.29269409 142.8609314 C-22.04106412 123.89130847 -18.65298622 104.95306194 -15.12084961 86.03390503 C-13.2355133 75.92266687 -11.44108734 65.79509163 -9.64892578 55.66699219 C-9.18448702 53.04251133 -8.71937369 50.41815673 -8.25341797 47.79394531 C-5.42709666 31.87495541 -2.60631534 15.95682929 0 0 Z " fill="#FEFEFE" transform="translate(75,49)"/>
<path d="M0 0 C0.99 4.62 1.98 9.24 3 14 C-3.5158108 17.14819556 -10.29752958 18.69326165 -17.3125 20.375 C-25.3418805 22.33913619 -33.36023991 24.30409529 -41.3125 26.5625 C-47.95624923 28.44845256 -54.62481257 30.21378928 -61.3125 31.9375 C-68.80455922 33.87109498 -76.25717944 35.90396725 -83.6875 38.0625 C-91.24657004 40.25770771 -98.83494725 42.23910303 -106.48120117 44.10571289 C-112.5311681 45.5966803 -118.51750932 47.25915707 -124.5 49 C-131.30230308 50.97939986 -138.11760092 52.82002832 -145 54.5 C-151.79938394 56.15983392 -158.53112657 57.97730216 -165.25 59.9375 C-173.89789903 62.45939856 -182.59961295 64.67662323 -191.34765625 66.82226562 C-197.0292085 68.22615886 -202.6534499 69.7271898 -208.25 71.4375 C-217.08791281 74.13763398 -226.0545561 76.31145341 -235.03027344 78.50170898 C-241.08265137 79.98581208 -247.06272633 81.55377486 -252.99633789 83.46240234 C-255 84 -255 84 -258 84 C-258.53293835 82.25364835 -259.05090663 80.50272348 -259.5625 78.75 C-259.85253906 77.77546875 -260.14257812 76.8009375 -260.44140625 75.796875 C-261.00631944 72.96835863 -260.78911648 71.69257635 -260 69 C-249.0497184 65.78335478 -238.08575536 62.71739713 -227 60 C-218.48985308 57.91341682 -210.06339089 55.63343659 -201.65234375 53.1796875 C-194.97942239 51.24565415 -188.26713986 49.54159524 -181.51855469 47.89428711 C-175.46870005 46.40320103 -169.48241527 44.74082099 -163.5 43 C-155.87849543 40.78222098 -148.23016606 38.77665471 -140.51953125 36.89453125 C-134.46935161 35.40335668 -128.48273888 33.74091515 -122.5 32 C-114.87849543 29.78222098 -107.23016606 27.77665471 -99.51953125 25.89453125 C-93.46935161 24.40335668 -87.48273888 22.74091515 -81.5 21 C-73.87849543 18.78222098 -66.23016606 16.77665471 -58.51953125 14.89453125 C-51.58848861 13.18625229 -44.74124267 11.23545968 -37.88842773 9.23925781 C-30.82426497 7.19695849 -23.71814031 5.37377525 -16.5703125 3.6484375 C-13.20916752 2.83191975 -9.95841999 1.98569922 -6.68359375 0.859375 C-4 0 -4 0 0 0 Z " fill="#7149AE" transform="translate(448,240)"/>
<path d="M0 0 C0.50961846 1.39235043 1.00724909 2.78909118 1.5 4.1875 C1.91765625 5.35345703 1.91765625 5.35345703 2.34375 6.54296875 C3.0353168 9.13222779 3.11370917 11.33257238 3 14 C-14.70904554 19.77157152 -32.85448199 24.19914599 -50.87646484 28.87060547 C-57.32203006 30.54665395 -63.74159963 32.30098131 -70.15209961 34.10595703 C-76.26821866 35.81909829 -82.4122681 37.41428725 -88.5625 39 C-95.14313037 40.69765548 -101.68575286 42.45923789 -108.1875 44.4375 C-116.94220532 47.09484887 -125.82292507 49.22611547 -134.70483398 51.41162109 C-141.76066204 53.15834384 -148.74159318 55.03075385 -155.69140625 57.15625 C-162.77296877 59.29328958 -169.95551765 61.00776122 -177.13769531 62.76977539 C-182.97202118 64.21171377 -188.75104668 65.74933642 -194.5 67.5 C-202.29919324 69.87499991 -210.18675437 71.82025695 -218.10375977 73.76074219 C-224.26259595 75.28187978 -230.36341133 76.91995092 -236.4375 78.75 C-250.99995776 83.13275942 -250.99995776 83.13275942 -258 83 C-258.50471197 81.23050388 -259.00360685 79.45934777 -259.5 77.6875 C-259.91765625 76.20830078 -259.91765625 76.20830078 -260.34375 74.69921875 C-261 72 -261 72 -261 69 C-260.41323486 68.84966309 -259.82646973 68.69932617 -259.22192383 68.54443359 C-248.54750829 65.80251499 -237.8958624 63.01423392 -227.3125 59.9375 C-219.66101589 57.71424401 -211.97749034 55.71402155 -204.23754883 53.82397461 C-198.94525603 52.51984912 -193.71719785 51.07669314 -188.5 49.5 C-182.45527712 47.67321992 -176.38441042 46.06032649 -170.25 44.5625 C-163.28422834 42.86143057 -156.38461422 41.00429256 -149.5 39 C-142.6977189 37.02050353 -135.88236438 35.18011258 -129 33.5 C-122.09929963 31.81408365 -115.26078485 29.97618369 -108.4375 28 C-96.2358585 24.46894253 -83.96201846 21.26809646 -71.65625 18.12109375 C-68.97898255 17.43561262 -66.30192682 16.74931008 -63.625 16.0625 C-62.95280426 15.89013824 -62.28060852 15.71777649 -61.58804321 15.54019165 C-52.46277957 13.19663465 -43.38247003 10.73336183 -34.33911133 8.08935547 C-27.34332785 6.05766481 -20.2964828 4.2714981 -13.21606445 2.55981445 C-2.42022681 -0.06369018 -2.42022681 -0.06369018 0 0 Z " fill="#8148AE" transform="translate(458,279)"/>
<path d="M0 0 C8.18075325 5.80118053 14.40899114 13.75941113 16.6171875 23.64453125 C17.84135416 37.30511825 16.28936677 46.69632821 7.9453125 57.88671875 C-0.49135611 67.24740345 -15.18817604 71.51014646 -27.3828125 72.64453125 C-29.51140694 66.41881374 -31.45598955 60.15974024 -33.2578125 53.83203125 C-33.5168335 52.92549805 -33.77585449 52.01896484 -34.04272461 51.08496094 C-36.02771425 44.064238 -37.82415176 37.0074368 -39.54711914 29.91845703 C-41.10287822 23.58046003 -42.88844522 17.33175605 -44.85961914 11.11035156 C-45.96817086 7.51683739 -46.63679214 4.41068645 -46.3828125 0.64453125 C-31.32684901 -6.38158505 -15.04931982 -8.56084258 0 0 Z " fill="#494BAB" transform="translate(343.3828125,153.35546875)"/>
<path d="M0 0 C7.60019611 4.21769125 12.26592838 10.79778513 15 19 C15.83778644 27.92564788 14.15081376 36.14298588 8.6640625 43.36328125 C2.98684311 48.947213 -3.79949575 52.14945819 -11.625 52.25 C-20.78253452 52.14721135 -26.45921042 50.40466116 -33.16796875 44.06640625 C-39.01306963 37.47353127 -40.804705 30.91774348 -40.4140625 22.1796875 C-39.41605069 14.51571 -36.65991923 8.69785723 -30.9375 3.46875 C-21.40477986 -3.75766688 -10.86805975 -5.08594255 0 0 Z " fill="#564BAC" transform="translate(261,191)"/>
<path d="M0 0 C6.46423591 4.06866613 11.60334662 8.80199111 13.9921875 16.25390625 C15.06607642 24.92979829 14.74419914 32.77067198 9.9921875 40.25390625 C9.3321875 41.30578125 8.6721875 42.35765625 7.9921875 43.44140625 C3.4469226 48.41888959 -3.37320137 51.66099223 -9.953125 52.734375 C-18.54486108 52.98566533 -25.45962626 50.49645117 -32.109375 45.08203125 C-37.63792795 39.75823952 -40.26129356 34.59474004 -40.66796875 26.93823242 C-40.77649307 18.02082791 -39.37976913 11.90025347 -33.140625 5.26953125 C-23.91141581 -3.42100815 -11.5628438 -6.07790507 0 0 Z " fill="#454BAB" transform="translate(416.0078125,149.74609375)"/>
<path d="M0 0 C-1.53748983 4.16534234 -3.55644394 7.96577211 -5.75 11.8125 C-6.13776611 12.49771729 -6.52553223 13.18293457 -6.92504883 13.88891602 C-11.03871291 21.12728348 -15.26265192 28.30150144 -19.47338867 35.48364258 C-24.52971117 44.13384981 -29.44037983 52.86116302 -34.29370117 61.62670898 C-40.59425411 72.97218533 -40.59425411 72.97218533 -44 78 C-44.66 78 -45.32 78 -46 78 C-50.35782229 62.40084783 -54.66517677 46.80264875 -58.49609375 31.06396484 C-59.25490309 27.95593475 -60.03400772 24.85315673 -60.8125 21.75 C-61.20843888 20.16669306 -61.60429272 18.58336484 -62 17 C-48.30638461 12.63400693 -34.55918593 8.75929657 -20.58300781 5.39819336 C-14.85460037 4.01150263 -9.25242723 2.535018 -3.70263672 0.54199219 C-2 0 -2 0 0 0 Z " fill="#E2BDFD" transform="translate(488,327)"/>
<path d="M0 0 C3.44419134 9.41002278 3.44419134 9.41002278 3 14 C-3.4055959 17.12831428 -10.05029175 18.52645284 -17 20 C-15.65244514 27.42948498 -13.7806693 34.62408906 -11.6875 41.875 C-9.38071857 49.99688128 -7.13007934 58.12613752 -5.0625 66.3125 C-4.74575317 67.54685791 -4.74575317 67.54685791 -4.42260742 68.80615234 C-3.54307019 72.33550557 -3 75.34072179 -3 79 C-4.55759343 79.53532823 -6.12138045 80.05265378 -7.6875 80.5625 C-8.55761719 80.85253906 -9.42773438 81.14257812 -10.32421875 81.44140625 C-13.26630357 82.0555933 -15.10498558 81.66383847 -18 81 C-18.15033691 80.38294189 -18.30067383 79.76588379 -18.45556641 79.13012695 C-21.62796958 66.15636477 -24.96858477 53.25740265 -28.703125 40.43359375 C-28.92291016 39.67675293 -29.14269531 38.91991211 -29.36914062 38.14013672 C-29.95216331 36.1622819 -30.56089335 34.19205376 -31.171875 32.22265625 C-31.92132883 29.30614959 -32.18107085 26.98766908 -32 24 C-33.24136719 24.3609375 -34.48273438 24.721875 -35.76171875 25.09375 C-37.4035476 25.56284396 -39.04548019 26.03157492 -40.6875 26.5 C-41.91243164 26.85771484 -41.91243164 26.85771484 -43.16210938 27.22265625 C-47.19171125 28.36464868 -50.76504847 29.34500623 -55 29 C-55.50692692 27.4188708 -56.00526443 25.83498617 -56.5 24.25 C-56.91765625 22.92742187 -56.91765625 22.92742187 -57.34375 21.578125 C-58 19 -58 19 -58 15 C-49.72889373 12.29830653 -41.41536089 10.06451846 -32.96582031 8.00830078 C-25.51507126 6.17580408 -18.15231645 4.08134209 -10.80273438 1.87939453 C-9.97064453 1.63431152 -9.13855469 1.38922852 -8.28125 1.13671875 C-7.54970703 0.91717529 -6.81816406 0.69763184 -6.06445312 0.47143555 C-4 0 -4 0 0 0 Z " fill="#544BAC" transform="translate(211,177)"/>
<path d="M0 0 C6.15351101 2.77324577 11.09571251 8.06405071 13.58203125 14.34765625 C14.44559515 21.93898542 14.41720641 29.141101 9.58203125 35.34765625 C5.21296555 39.97555285 0.9752932 42.93490352 -5.46875 43.71875 C-12.83866826 43.86879624 -17.84833569 43.389362 -23.41796875 38.34765625 C-28.63682831 33.23585022 -30.70735779 28.31001788 -30.85546875 21.03515625 C-30.73439248 13.89165643 -28.88909575 9.80990569 -23.890625 4.82421875 C-16.89224882 -1.3372015 -9.03439259 -2.43738863 0 0 Z " fill="#FDFDFE" transform="translate(339.41796875,28.65234375)"/>
<path d="M0 0 C0.66 0 1.32 0 2 0 C2.18433594 0.60585938 2.36867188 1.21171875 2.55859375 1.8359375 C5.90769055 11.51110604 12.16900864 18.84089401 20.98046875 24.0625 C26.80461962 26.76616772 32.04945286 27.38287379 38.375 27.625 C39.20644531 27.66367188 40.03789062 27.70234375 40.89453125 27.7421875 C42.92935156 27.83574246 44.96464416 27.91892713 47 28 C45.70951936 31.83193742 44.32843849 34.01190686 41.25 36.625 C40.59515625 37.19476563 39.9403125 37.76453125 39.265625 38.3515625 C32.04387508 43.60600813 25.69814451 43.84392141 17 43 C9.71359448 41.34355057 4.57396406 37.86001231 0 32 C-0.43441406 31.44957031 -0.86882812 30.89914063 -1.31640625 30.33203125 C-5.46852298 23.77834178 -4.79184041 15.43111766 -4 8 C-2.98481089 4.8494131 -1.84905124 2.77357685 0 0 Z " fill="#FBFCFD" transform="translate(293,59)"/>
<path d="M0 0 C6.82102922 3.08447149 10.93410914 7.50884328 14.26171875 14.1640625 C14.89517175 22.07703274 15.36752191 29.67149798 10.26171875 36.1640625 C6.8557254 39.79967338 2.8378836 42.23190401 -1.73828125 44.1640625 C-2.72828125 44.1640625 -3.71828125 44.1640625 -4.73828125 44.1640625 C-4.89385498 43.56158691 -5.04942871 42.95911133 -5.2097168 42.33837891 C-5.94674547 39.48817409 -6.68588782 36.63852503 -7.42578125 33.7890625 C-7.69471191 32.75297852 -7.96364258 31.71689453 -8.24072266 30.64941406 C-10.15907587 23.29440944 -12.15268559 15.96453612 -14.2644043 8.66259766 C-15.09976869 5.72760819 -15.73828125 3.23316724 -15.73828125 0.1640625 C-11.03097683 -2.18958971 -4.89714073 -1.49499018 0 0 Z " fill="#BDB2FD" transform="translate(330.73828125,163.8359375)"/>
<path d="M0 0 C3.43403788 2.00011167 6.21175747 4.42351494 8 8 C8.79674298 14.71540516 8.79674298 14.71540516 6.73046875 18.046875 C1.84432105 23.80087861 1.84432105 23.80087861 -2.20703125 24.23828125 C-9.24770268 24.43884011 -9.24770268 24.43884011 -13 22.25 C-16.67916439 18.11094006 -17.49336702 14.70276511 -17.39453125 9.2578125 C-16.72202988 5.40924032 -14.79323112 3.66022012 -12 1 C-8.24289828 -0.87855086 -4.08021262 -0.66379578 0 0 Z " fill="#C3B3FD" transform="translate(253,204)"/>
<path d="M0 0 C3.20452995 1.74246316 5.02356979 3.14863594 7.0625 6.20703125 C7.65272577 10.72954041 7.58979459 14.90267096 5.875 19.14453125 C2.54588657 22.93283273 0.17892263 24.08298429 -4.875 24.64453125 C-9.13484994 24.47542568 -11.68413122 22.99563306 -14.9375 20.20703125 C-17.68387397 15.7959032 -17.60764565 11.24946863 -16.9375 6.20703125 C-13.21702517 -0.1709256 -7.22525243 -2.95710936 0 0 Z " fill="#BBB1FD" transform="translate(407.9375,162.79296875)"/>
</svg>
